**ABCDEFGHIJKLMNOPQRSTUVWXYZabcdefghijklmnopqrstuvwxyz**************************
**PARASOLID !"#$%&'()*+,-./:;<=>?@[\]^_`{|}~0123456789**************************
**PART1;
MC=unknown;
MC_MODEL=unknown;
MC_ID=unknown;
OS=unknown;
OS_RELEASE=unknown;
FRU=Parasolid 37.0.209;
APPL=Onshape;
SITE=unknown;
USER=unknown;
FORMAT=text;
GUISE=transmit;
KEY=BTGapi::writeModels_.xmt;
FILE=BTGapi::writeModels_.xmt;
DATE=2025-08-23T10:00:17 (UTC);
**PART2;
SCH=SCH_3700209_36001;
USFLD_SIZE=0;
**PART3;
**END_OF_HEADER*****************************************************************
T51 : TRANSMIT FILE created by modeller version 370020923 SCH_3700209_36001_1300
6231 0 12 36 CCCI7 lattice222 0 CCCI4 mesh1006 0 I8 polyline1008 0 CCCCCCCDI5 ow
ner1040 0 CCCI16 boundary_lattice222 0 CCCI13 boundary_mesh1006 0 I17 boundary_p
olyline1008 0 CCCA16 index_map_offset0 0 1 dA9 index_map82 0 A17 node_id_index_m
ap82 0 A20 schema_embedding_map82 0 A5 child12 0 A14 lowest_node_id0 0 1 dA16 me
sh_offset_data206 0 Z1 352 2 3 0 0 0 0 0 0 0 1e3 1e-8 0 4 5 1 0 1 2 6 0 7 8 0 0
 0 9 10 0 0 0 0 0 0 0 0 81 255 1 2 342 11 1 12 0 0 0 13 70 11 CI9 list_type0 0 1
 uI10 notransmit0 0 1 lCCCDCCDI12 finger_index0 0 1 dI12 finger_block1012 0 CZ3
 0 4 T1 0 0 5 20 1 14 14 13 255 6 39 0 1 0 15 0 0 16 0 51 255 7 319 0 15 17 0 0
 --.00222179672264003 .00578821790349008 5e-4 0 0 -1 17145e-8 183697019872103e-3
0 1 0 31 255 8 329 0 10 18 0 0 --.00222179672264003 .00578821790349008 0 0 0 1 -
183697019872103e-30 -1 0 17145e-8 19 9 CCCCCCI5 frame230 0 CA5 owner12 0 Z9 13 0
 1 16 0 19 0 V0 16 255 10 327 20 ?21 0 22 8 0 0 1 81 1 20 338 23 10 0 0 24 25 26
 17 255 21 0 27 21 21 0 28 10 0 0 +16 22 323 24 ?29 10 30 18 0 0 1 81 1 24 337 2
3 22 0 0 31 20 32 17 29 0 33 29 29 0 34 22 0 0 +16 30 311 35 ?36 22 37 38 0 0 1
 31 18 325 0 22 38 8 0 +-.00222179672264003 .00578821790349008 5e-4 0 0 -1 18369
7019872103e-30 1 0 17145e-8 31 38 313 0 30 39 18 0 --.00565409041065453 .0022217
96722640035 0 0 0 1 -1 1224646799147352e-31 0 17145e-8 31 39 309 0 37 40 38 0 +-
.00565409041065453 .002221796722640035 5e-4 0 0 -1 1 -1224646799147352e-31 0 171
45e-8 16 37 307 41 ?42 30 43 39 0 0 1 31 40 297 0 43 44 39 0 --.0092205115915045
8 .00565409041065453 0 0 0 1 612323399573677e-31 1 0 17145e-8 16 43 295 45 ?46 3
7 47 40 0 0 1 31 44 293 0 47 48 40 0 +-.00922051159150458 .00565409041065453 5e-
4 0 0 -1 -612323399573677e-31 -1 0 17145e-8 16 47 291 49 ?50 43 51 44 0 0 1 31 4
8 221 0 52 53 44 0 --.00578821790349008 .00922051159150458 0 0 0 1 1 0 0 17145e-
8 16 52 245 54 ?55 56 57 48 0 0 1 31 53 148 0 56 58 48 0 +-.00572115415707231 .0
0572115415707231 0 0 0 1 1 0 0 .0025 16 56 157 59 ?60 61 52 53 0 0 1 31 58 33 0
 62 63 53 0 +-.00572115415707231 .00572115415707231 0 0 0 1 1 0 0 .004 16 62 28
 64 ?65 66 67 58 0 0 1 31 63 9 0 66 68 58 0 +-.00572115415707231 .00572115415707
231 5e-4 0 0 1 1 0 0 .004 16 66 7 69 ?70 51 62 63 0 0 1 31 68 118 0 51 71 63 0 +
-.00572115415707231 .00572115415707231 5e-4 0 0 1 1 0 0 .003 16 51 58 72 ?73 47
 66 68 0 0 1 31 71 120 0 67 74 68 0 +-.00572115415707231 .00572115415707231 .001
5 0 0 1 1 0 0 .003 16 67 84 75 ?76 62 61 71 0 0 1 31 74 121 0 61 77 71 0 +-.0057
2115415707231 .00572115415707231 .0015 0 0 1 1 0 0 .0025 16 61 76 78 ?79 67 56 7
4 0 0 1 31 77 274 0 57 0 74 0 +-.00578821790349008 .00922051159150458 5e-4 0 0 -
1 -1 0 0 17145e-8 16 57 237 80 ?81 52 0 77 0 0 1 81 1 80 278 23 57 0 0 82 54 83
 17 81 0 84 81 81 0 85 57 0 0 +15 255 84 226 0 81 86 87 17 85 0 88 85 85 0 81 57
 0 0 -15 88 253 0 85 89 90 14 255 89 260 91 ?0 92 88 6 93 +0 0 0 92 19 15 90 254
 0 55 89 0 17 55 0 90 55 55 0 94 52 0 0 +17 94 0 95 94 94 0 55 52 0 0 -15 95 220
 0 94 96 97 14 96 23 98 ?99 86 100 6 101 -0 0 99 86 19 15 97 146 0 60 96 102 17
 60 0 97 60 60 0 103 56 0 0 +15 102 27 0 104 96 0 17 104 0 102 104 104 0 65 62 0
 0 -17 65 0 105 65 65 0 104 62 0 0 +15 105 36 0 65 106 0 14 106 35 107 ?86 108 1
09 6 110 -0 0 86 108 19 81 1 107 346 111 106 112 0 113 114 115 14 86 1 114 ?96 1
06 33 6 116 +0 0 96 106 19 14 108 285 113 ?106 117 118 6 119 +0 0 106 117 19 15
 109 34 0 120 106 105 51 110 38 0 106 101 119 0 --.00572115415707231 .0057211541
5707231 5e-4 0 0 -1 .004 -1 0 0 13 19 14 0 0 0 0 0 0 9 15 14 15 317 121 ?117 0 1
22 6 7 +0 0 117 0 19 81 1 121 343 111 15 25 0 0 123 124 14 117 301 123 ?108 15 1
25 6 17 +0 0 108 15 19 15 122 321 0 34 15 27 17 34 0 122 34 34 0 29 22 0 0 -15 2
7 322 0 21 15 0 81 1 123 344 111 117 31 0 121 113 126 15 125 305 0 127 117 128 5
1 17 303 0 117 119 7 0 --.00565409041065453 .002221796722640035 5e-4 0 0 -1 1714
5e-8 1 -1224646799147352e-31 0 51 119 287 0 108 110 17 0 --.00922051159150458 .0
0565409041065453 5e-4 0 0 -1 17145e-8 -612323399573677e-31 -1 0 17 127 0 125 127
 127 0 42 37 0 0 -15 128 306 0 36 117 0 17 36 0 128 36 36 0 129 30 0 0 +17 129 0
 130 129 129 0 36 30 0 0 -15 130 300 0 129 96 131 15 131 284 0 132 96 95 17 132
 0 131 132 132 0 46 43 0 0 -17 46 0 133 46 46 0 132 43 0 0 +15 133 290 0 46 108
 0 17 42 0 134 42 42 0 127 37 0 0 +15 134 299 0 42 86 135 15 135 283 0 50 86 84
 17 50 0 135 50 50 0 136 47 0 0 +17 136 0 118 136 136 0 50 47 0 0 -15 118 289 0
 136 108 133 80 7 CCCCCDI12 legal_owners0 17 1 lCZ1 111 0 137 8001 0 0 0 0 3 5 0
 0 0 FFFFTFTFFFFFFFFFF2 81 1 31 336 23 117 0 123 35 24 138 81 1 113 345 111 108
 139 0 123 107 140 83 255 3 126 .615686274509804 .811764705882353 .9294117647058
82 81 1 139 333 23 108 0 113 45 41 141 83 3 140 .615686274509804 .81176470588235
3 .929411764705882 80 1 23 142 143 9000 0 0 0 0 3 6 0 0 0 FFTFTFTTFFFFFFFFF1 81
 1 45 332 23 43 0 0 49 139 144 81 1 41 334 23 37 0 0 139 35 145 82 255 3 141 19
 0 2 81 1 35 335 23 30 0 0 41 31 146 82 3 145 19 2 1 82 3 146 19 3 1 81 1 49 331
 23 47 0 0 147 45 148 82 3 144 19 1 1 81 1 147 282 23 96 0 98 149 49 150 82 3 14
8 19 0 1 81 1 98 348 111 96 147 0 114 151 152 81 1 149 281 23 86 0 114 153 147 1
54 82 3 150 18 2 2 81 1 114 347 111 86 149 0 107 98 155 81 1 153 280 23 89 0 91
 54 149 156 82 3 154 18 1 2 81 1 91 352 111 89 153 0 157 0 158 81 1 54 279 23 52
 0 0 80 153 159 82 3 156 18 0 2 82 3 159 18 1 1 81 1 157 351 111 92 160 0 161 91
 162 83 3 158 .615686274509804 .811764705882353 .929411764705882 14 92 102 157 ?
89 163 164 6 165 +0 0 89 163 19 81 1 160 104 23 92 0 157 166 167 168 81 1 161 35
0 111 163 166 0 151 157 169 83 3 162 .615686274509804 .811764705882353 .92941176
4705882 14 163 97 161 ?92 99 170 6 171 -0 0 92 99 19 81 1 166 99 23 163 0 161 75
 160 172 81 1 151 349 111 99 82 0 98 161 173 83 3 169 .615686274509804 .81176470
5882353 .929411764705882 14 99 92 151 ?163 96 174 6 175 +0 0 163 96 19 81 1 82 1
99 23 99 0 151 59 80 176 83 3 173 .615686274509804 .811764705882353 .92941176470
5882 81 1 59 198 23 56 0 0 72 82 177 82 3 176 14 0 2 81 1 72 131 23 51 0 0 167 5
9 178 82 3 177 14 0 1 81 1 167 130 23 1 0 179 160 72 180 82 3 178 12 0 1 81 1 17
9 340 181 1 167 12 0 0 182 82 3 180 6 0 3 80 1 181 183 184 8038 0 0 0 0 0 0 0 0
 0 TTTTTTTTTTTTTFTFT10 81 1 12 341 183 1 179 2 0 0 185 98 255 6 182 80 97 114 11
6 32 49 80 1 183 186 187 8017 0 0 0 0 0 0 0 0 0 TTTTTTTTTTTTTFTFT3 84 255 6 185
 Part 179 255 13 187 SDL/TYSA_NAME79 14 184 SDL/TYSA_UNAME15 174 95 0 79 99 188
 51 175 114 0 99 171 116 0 --.00572115415707231 .00572115415707231 .0015 0 0 -1
 .0025 -1 0 0 51 171 115 0 163 165 175 0 --.00572115415707231 .00572115415707231
 .0015 0 0 -1 .003 -1 0 0 50 255 116 3 0 86 175 101 0 +-.00572115415707231 .0057
2115415707231 5e-4 0 0 1 1 0 0 50 101 32 0 96 116 110 0 +-.00572115415707231 .00
572115415707231 0 0 0 1 1 0 0 50 165 117 0 92 93 171 0 +-.00572115415707231 .005
72115415707231 .0015 0 0 1 1 0 0 51 93 272 0 89 0 165 0 --.00578821790349008 .00
922051159150458 5e-4 0 0 -1 17145e-8 -1 0 0 17 79 0 174 79 79 0 189 61 0 0 +15 1
88 172 0 103 99 0 17 103 0 188 103 103 0 60 56 0 0 -17 189 0 164 189 189 0 79 61
 0 0 -15 164 105 0 189 92 190 15 190 106 0 76 92 0 17 76 0 190 76 76 0 191 67 0
 0 +17 191 0 170 191 191 0 76 67 0 0 -15 170 100 0 191 163 192 15 192 101 0 73 1
63 0 17 73 0 192 73 73 0 193 51 0 0 +17 193 0 87 193 193 0 73 51 0 0 -15 87 60 0
 193 86 194 15 194 6 0 70 86 0 17 70 0 194 70 70 0 120 66 0 0 +17 120 0 109 120
 120 0 70 66 0 0 -81 1 75 86 23 67 0 0 78 166 195 82 3 172 11 0 2 81 1 78 78 23
 61 0 0 112 75 196 82 3 195 11 1 1 81 1 112 46 23 106 0 107 69 78 197 82 3 196 1
1 3 1 81 1 69 45 23 66 0 0 64 112 198 82 3 197 6 0 2 81 1 64 44 23 62 0 0 0 69 1
99 82 3 198 6 1 1 82 3 199 6 0 1 82 3 168 11 2 2 83 3 155 .615686274509804 .8117
64705882353 .929411764705882 83 3 152 .615686274509804 .811764705882353 .9294117
64705882 79 9 143 BTI/DetId82 3 138 19 1 2 79 15 137 SDL/TYSA_COLOUR81 1 25 339
 23 15 0 121 20 0 200 83 3 124 .615686274509804 .811764705882353 .92941176470588
2 82 3 200 19 2 2 15 33 315 0 29 86 134 83 3 115 .615686274509804 .8117647058823
53 .929411764705882 15 100 316 0 28 96 130 17 28 0 100 28 28 0 21 10 0 0 -82 3 8
3 18 0 1 82 3 32 19 4 1 82 3 26 19 5 1 19 16 40 0 1 0 9 6 0 S0 74 4 CI16 index_m
ap_offset0 0 1 dCCZ20 14 5 0 0 25 179 12 2 91 0 0 0 0 0 0 0 0 0 0 0 0 0 0 0 80 1
 11 111 201 8040 0 0 0 0 3 5 0 0 0 TTTFFFFFFFFFFFFFF2 83 3 13 .615686274509804 .
811764705882353 .929411764705882 79 17 201 SDL/TYSA_COLOUR_21 0 
